# xmcd
#
# Track frame offsets:
#	150
#	14662
#	26276
#	40538
#	52206
#	66622
#	81189
#	94845
#	105187
#	118526
#	132309
#	145960
#	160917
#	172923
#	184575
#	197625
#	208222
#	219793
#	239473
#	255184
#
# Disc length: 3739 seconds
#
# Revision: 1
# Processed by: cddbd v1.4b42PL0 Copyright (c) Steve Scherf et al.
# Submitted via: audiograbber 1.80
#
DISCID=120e9914
DTITLE=Miles Davis - From Be-Bop to Cool
DYEAR=1900
DGENRE=
TTITLE0=Jeru
TTITLE1=Move
TTITLE2=Godchild
TTITLE3=Budo
TTITLE4=Venus De Milo
TTITLE5=Rouge
TTITLE6=Boplicity
TTITLE7=Israel
TTITLE8=John's Delight
TTITLE9=What's New
TTITLE10=Focus
TTITLE11=Heaven's Door are Wide Open
TTITLE12=Barbados
TTITLE13=Constellation
TTITLE14=Marmaduke
TTITLE15=Merry Go Round
TTITLE16=Bean A Re-Bop
TTITLE17=S'il Vous Plait
TTITLE18=Good Bait
TTITLE19="Wah""Hoo" (Wahoo)
EXTD=
EXTT0=
EXTT1=
EXTT2=
EXTT3=
EXTT4=
EXTT5=
EXTT6=
EXTT7=
EXTT8=
EXTT9=
EXTT10=
EXTT11=
EXTT12=
EXTT13=
EXTT14=
EXTT15=
EXTT16=
EXTT17=
EXTT18=
EXTT19=
PLAYORDER=
